<svg width="86" height="12" viewBox="0 0 86 12" fill="none" xmlns="http://www.w3.org/2000/svg">
<path d="M32.549 0.069145C33.8399 -0.128221 35.195 0.0990756 36.3428 0.723529C37.4556 1.32291 38.3701 2.27981 38.9139 3.4179C39.5171 4.666 39.6577 6.12521 39.3171 7.46795C38.9936 8.76782 38.2108 9.94716 37.1427 10.7617C35.3161 12.1934 32.6393 12.4045 30.6054 11.2858C29.4348 10.6606 28.4854 9.63898 27.9497 8.4289C27.275 6.926 27.2661 5.14404 27.9237 3.63306C28.7162 1.7597 30.5257 0.359532 32.549 0.069145ZM32.875 2.09134C31.5792 2.28628 30.4396 3.20193 29.9315 4.39826C29.4064 5.58893 29.5096 7.03277 30.2095 8.13204C30.7834 9.0582 31.7621 9.7328 32.8449 9.9059C33.9456 10.0984 35.1178 9.7595 35.9567 9.02827C36.9134 8.21373 37.4312 6.92924 37.3231 5.68195C37.2418 4.56893 36.6679 3.50121 35.7729 2.8258C34.9617 2.20135 33.8887 1.92552 32.875 2.09134Z" fill="white"/>
<path d="M0.642242 0.345069C1.14461 0.209178 1.67542 0.319181 2.18917 0.280355C2.37207 0.30543 2.65008 0.211601 2.75332 0.417055C2.78908 0.684794 2.76632 0.955768 2.76957 1.22593C2.76957 3.58058 2.76876 5.93603 2.76957 8.29067C4.84407 5.71116 6.91612 3.13003 8.98817 0.548903C9.09629 0.414629 9.24342 0.295726 9.4247 0.29249C10.0197 0.266606 10.6156 0.295724 11.2114 0.281165C11.4342 0.285209 11.6813 0.24315 11.8715 0.390366C11.1781 1.29954 10.4432 2.17717 9.73278 3.07341C7.60301 5.72653 5.47243 8.37884 3.34185 11.0311C3.18333 11.2237 3.04433 11.4356 2.85493 11.6022C2.66877 11.7551 2.40946 11.7074 2.18673 11.7195C1.67217 11.7017 1.15436 11.747 0.642242 11.6839V0.345069Z" fill="white"/>
<path d="M15.0467 0.756069C15.2678 0.457594 15.6303 0.276409 16.0034 0.284497C16.4635 0.285306 16.9244 0.276408 17.3845 0.288541C17.5431 0.271554 17.6317 0.434945 17.6113 0.574072C17.6113 4.18975 17.6113 7.80625 17.6113 11.4219C17.6325 11.5611 17.5471 11.7309 17.3845 11.7131C16.8147 11.7196 16.2449 11.7196 15.675 11.7123C15.4661 11.718 15.3011 11.5716 15.184 11.4155C14.1988 10.1843 13.2087 8.95728 12.2235 7.72617C11.2204 8.96942 10.223 10.2167 9.22232 11.4624C9.11502 11.5991 8.95976 11.7139 8.77767 11.7115C8.12492 11.7261 7.47135 11.7083 6.81779 11.7188C6.65765 11.7083 6.45687 11.7592 6.3577 11.5934C9.23695 7.96803 12.1552 4.37175 15.0467 0.756069ZM13.4233 6.00083C14.0997 6.83802 14.7662 7.68249 15.4474 8.51483C15.4523 6.83641 15.4507 5.15879 15.449 3.48037C14.7719 4.31917 14.0972 5.1596 13.4233 6.00083Z" fill="white"/>
<path d="M20.1923 0.571467C20.1769 0.443665 20.2468 0.286739 20.3956 0.289974C20.9687 0.276224 21.5442 0.281888 22.1181 0.28755C22.2823 0.269755 22.3847 0.431531 22.3587 0.581173C22.3619 3.61123 22.3603 6.64129 22.3595 9.67215C23.9528 9.67781 25.546 9.6681 27.1385 9.67619C27.2751 9.64707 27.3604 9.81936 27.2523 9.91076C26.8377 10.4422 26.4093 10.9639 25.9874 11.4913C25.8598 11.6628 25.6436 11.7324 25.4355 11.717C23.7561 11.7113 22.0758 11.7235 20.3964 11.7113C20.2419 11.7178 20.1777 11.5512 20.1923 11.4226C20.1923 7.80607 20.1915 4.18877 20.1923 0.571467Z" fill="white"/>
<path d="M41.4225 0.575505C41.3851 0.408876 41.52 0.257614 41.6899 0.285116C44.5936 0.28188 47.4964 0.283502 50.3992 0.284311C50.5334 0.265707 50.6919 0.349021 50.6789 0.50109C50.6878 1.28408 50.6805 2.06788 50.6821 2.85088C50.6992 3.03773 50.6 3.20193 50.4846 3.33944C49.6465 4.37076 48.8222 5.41259 47.9817 6.44229C47.9402 6.51509 47.8021 6.61135 47.9069 6.69547C49.1766 8.28411 50.4569 9.86546 51.7251 11.4549C51.8169 11.5309 51.8185 11.7121 51.6682 11.7081C50.9154 11.7243 50.1619 11.7162 49.4091 11.7121C49.1141 11.7162 48.9474 11.4436 48.784 11.243C47.6183 9.78781 46.4518 8.33345 45.2821 6.88232C45.1951 6.77555 45.0618 6.62105 45.1829 6.48921C46.2844 5.09794 47.4062 3.72123 48.5133 2.33319C46.8737 2.32591 45.2333 2.34695 43.5945 2.32268C43.5653 5.38024 43.5962 8.43941 43.5791 11.497C43.5978 11.6393 43.4498 11.734 43.3214 11.7146C42.7524 11.7146 42.1834 11.7235 41.6143 11.7105C41.4631 11.7121 41.4022 11.5431 41.4217 11.4177C41.4225 7.80363 41.4217 4.18957 41.4225 0.575505Z" fill="white"/>
<path d="M53.5743 0.581269C53.5483 0.435671 53.6434 0.269042 53.8076 0.287646C54.3498 0.277939 54.8936 0.283599 55.4367 0.285217C55.6399 0.273084 55.8366 0.367726 55.9561 0.531929C58.6655 3.90495 61.374 7.27878 64.0834 10.6518C64.3167 10.9632 64.5963 11.2431 64.7987 11.5772C64.7792 11.6087 64.7402 11.6718 64.7207 11.7033C64.0639 11.7365 63.4046 11.7033 62.747 11.7179C62.4877 11.7219 62.1739 11.7438 62.0024 11.5076C60.9846 10.2514 59.9766 8.98712 58.9638 7.72689C57.9607 8.96933 56.9624 10.2166 55.9626 11.4615C55.8553 11.5998 55.6984 11.713 55.5163 11.7122C54.9489 11.7203 54.3815 11.7179 53.8149 11.7139C53.6459 11.7373 53.5475 11.5674 53.5743 11.4194C53.5743 7.80697 53.5751 4.19372 53.5743 0.581269ZM55.7374 3.48595C55.735 5.16356 55.735 6.84036 55.7374 8.51798C56.4138 7.67998 57.0868 6.83955 57.7607 5.99994C57.0852 5.16275 56.417 4.31909 55.7374 3.48595Z" fill="white"/>
<path d="M63.1275 0.584538C63.1104 0.459162 63.1665 0.29577 63.3153 0.292534C63.8558 0.270695 64.3972 0.2893 64.9378 0.283638C65.1475 0.269887 65.367 0.338639 65.4946 0.513356C67.5797 3.10338 69.6566 5.69988 71.7433 8.28829C71.7433 5.71848 71.7425 3.14868 71.7433 0.578065C71.7084 0.41629 71.8352 0.259368 72.0051 0.285252C72.5773 0.286061 73.1496 0.272312 73.7211 0.292534C73.8674 0.298196 73.9202 0.459971 73.904 0.584538C73.904 4.19537 73.904 7.8062 73.904 11.417C73.921 11.54 73.8666 11.7066 73.7186 11.709C73.1504 11.7252 72.5806 11.7139 72.0124 11.7147C71.8246 11.722 71.6466 11.6322 71.536 11.4842C69.4534 8.89656 67.3781 6.3025 65.2938 3.71651C65.2914 5.23316 65.2979 6.75061 65.2914 8.26726C65.3312 8.40234 65.1378 8.51801 65.0557 8.39506C64.4574 7.67273 63.8794 6.93342 63.2893 6.20462C63.1576 6.06145 63.1153 5.86893 63.1251 5.68047C63.1283 3.98182 63.1242 2.28318 63.1275 0.584538Z" fill="white"/>
<path d="M75.3989 0.500438C75.3819 0.353223 75.5396 0.268288 75.6688 0.285274C78.0554 0.28123 80.4421 0.285278 82.8287 0.28366C83.0352 0.270718 83.2514 0.337854 83.3774 0.510954C83.8001 1.03511 84.2269 1.55764 84.6423 2.08827C84.752 2.17724 84.6699 2.35358 84.5317 2.32931C83.2839 2.33902 82.0353 2.32931 80.7867 2.33335C80.7811 5.36179 80.7941 8.39023 80.7933 11.4187C80.8225 11.5635 80.7225 11.7301 80.56 11.7131C79.9901 11.718 79.4195 11.7204 78.8504 11.7123C78.7293 11.7228 78.6237 11.616 78.6358 11.4971C78.6155 8.44281 78.635 5.38767 78.6188 2.33335C77.6344 2.33093 76.6491 2.33659 75.6655 2.33174C75.5347 2.34711 75.3786 2.25732 75.3989 2.1101C75.3908 1.57382 75.39 1.03672 75.3989 0.500438Z" fill="white"/>
</svg>
